<svg width="189" height="130" viewBox="0 0 189 130" fill="none" xmlns="http://www.w3.org/2000/svg">
<g clip-path="url(#clip0_143_265)">
<path d="M137.447 82.0248C139.447 82.7699 140.287 83.471 141.88 84.9806C142.527 86.6433 142.527 86.6433 142.619 87.9365C140.957 88.4445 140.957 88.4445 138.925 88.6754C137.935 87.9416 136.95 87.2023 135.969 86.4585C133.496 86.1495 132.036 86.221 129.78 87.2899C128.4 88.6561 128.4 88.6561 128.117 90.8461C128.366 93.2364 128.366 93.2364 130.334 94.6333C131.798 95.478 133.291 96.1952 134.823 96.9108C141.847 100.218 141.847 100.218 144.097 104.194C144.845 107.955 144.662 111.217 142.573 114.493C140.173 117.351 137.437 118.631 133.74 119.204C129.908 119.438 127.743 118.486 124.884 116.017C122.691 113.247 121.928 112.206 121.928 108.627C123.392 108.627 124.855 108.627 126.362 108.627C126.698 109.344 127.033 110.06 127.378 110.798C128.326 113.113 128.326 113.113 130.057 113.8C132.225 114.01 133.863 114.166 135.969 113.8C138.206 111.898 138.822 110.732 139.294 107.842C138.83 105.115 138.053 104.493 135.969 102.716C134.53 101.96 133.065 101.254 131.581 100.591C127.832 98.7599 125.461 97.5167 123.406 93.8482C122.861 90.7247 122.66 89.1163 124.356 86.4355C128.24 81.7789 131.463 81.4095 137.447 82.0248Z" fill="#587F71"/>
<path fill-rule="evenodd" clip-rule="evenodd" d="M150.748 15.5182C154.331 17.1012 156.512 19.599 158.21 23.1041C159.967 28.4295 159.334 34.7018 157.399 39.9039C159.862 39.9039 161.724 39.8992 164.049 39.1649C164.512 38.4571 164.741 38.1061 164.927 37.7333C165.109 37.3665 165.249 36.9786 165.527 36.2092L165.527 36.2091L167.005 34.7311H169.222L169.961 38.4259C165.846 42.3616 161.107 45.8155 155.182 45.8155L154.61 47.7784C152.283 54.1214 147.633 59.343 141.88 62.8116L140.524 63.643C136.782 65.1558 131.509 65.2122 127.782 63.643C124.698 61.2748 123.004 57.6958 122.444 53.9115C122.343 52.2836 122.322 50.6793 122.344 49.0485L122.363 47.2832C122.607 38.7363 125.282 31.0031 130.796 24.3857C132.865 22.5789 135.043 21.268 137.447 19.9519L139.496 18.702C143.681 16.2313 145.276 15.2897 146.948 15.1225C147.978 15.0195 149.037 15.2101 150.748 15.5182ZM133.752 26.6025H134.491L134.549 28.2247C134.886 33.9812 135.996 36.9214 140.079 41.1046C142.884 43.3442 146.293 44.4148 149.681 45.4787C150.037 45.5906 150.393 45.7024 150.748 45.8154L147.792 51.7271L147.16 53.231C146.069 55.1032 144.758 56.1038 143.035 57.4079L141.283 58.7559C138.027 60.9671 134.608 61.078 130.796 60.5946C128.448 59.0895 127.932 57.8737 126.916 55.2834C125.1 46.0501 127.315 36.2538 132.412 28.3575L133.752 26.6025ZM154.443 24.3855C153.472 22.4442 152.416 21.3493 150.748 19.9517C148.263 19.1586 146.919 18.986 144.467 19.9056C141.016 22.7521 138.419 25.5921 137.816 30.1124C138.255 32.9662 138.981 34.6616 140.841 36.8641C144.698 40.5077 147.681 41.4574 152.965 41.3816C154.789 35.795 154.749 30.2124 154.443 24.3855Z" fill="#96BFB1"/>
<path d="M38.4259 82.7635C45.4978 82.7635 52.5696 82.7635 59.8558 82.7635C59.8558 83.9828 59.8558 85.2021 59.8558 86.4584C56.9295 86.4584 54.0032 86.4584 50.9882 86.4584C50.9882 96.9442 50.9882 107.43 50.9882 118.234C49.5251 118.234 48.0619 118.234 46.5545 118.234C46.5545 107.748 46.5545 97.262 46.5545 86.4584C43.872 86.4584 41.1896 86.4584 38.4259 86.4584C38.4259 85.2391 38.4259 84.0198 38.4259 82.7635Z" fill="#587F71"/>
<path d="M88.6753 82.0247C90.1384 82.0247 91.6016 82.0247 93.1091 82.0247C93.1091 93.9736 93.1091 105.923 93.1091 118.234C91.6459 118.234 90.1828 118.234 88.6753 118.234C88.6753 106.285 88.6753 94.3357 88.6753 82.0247Z" fill="#557B6F"/>
<path fill-rule="evenodd" clip-rule="evenodd" d="M114.927 83.8302C112.798 82.7635 110.134 82.7635 99.7596 82.7635V118.234H104.193V102.715C104.877 102.724 105.548 102.745 106.209 102.766C109.669 102.877 112.851 102.979 116.017 101.099C118.277 99.0509 119.516 96.8893 119.899 93.8278C119.997 90.3427 119.59 87.9519 117.238 85.3615C116.334 84.6945 115.662 84.1987 114.927 83.8302ZM111.316 87.0253C110.006 86.4583 108.451 86.4583 104.193 86.4583V99.0206C104.561 99.0451 104.915 99.071 105.258 99.096C108.612 99.3413 110.849 99.5049 113.892 97.4965C114.564 96.444 114.91 95.9018 115.125 95.3118C115.354 94.6851 115.435 94.0045 115.601 92.6009C115.427 91.2847 115.347 90.6762 115.08 90.1652C114.851 89.7258 114.483 89.3584 113.8 88.6751C112.741 87.8655 112.069 87.3516 111.316 87.0253Z" fill="#577E70"/>
<path fill-rule="evenodd" clip-rule="evenodd" d="M77.1812 83.7286C74.8947 82.7635 72.2009 82.7635 63.5507 82.7635V118.234H67.9844V103.454H70.2013C71.0748 106.075 72.3753 108.045 73.9048 110.332L75.0969 112.091C75.1333 112.148 75.1697 112.205 75.206 112.262C76.5853 114.422 77.9055 116.491 79.8078 118.234C81.4052 118.447 82.1168 118.541 82.8246 118.518C83.3932 118.5 83.9594 118.405 84.9805 118.234C84.5502 116.943 84.3704 116.403 84.118 115.901C83.937 115.54 83.7186 115.199 83.3437 114.612L82.2296 113.052L81.0245 111.356L79.7616 109.597C78.568 107.921 77.3743 106.245 76.1763 104.572L75.374 103.454C76.8684 102.494 78.3448 101.506 79.8078 100.499C81.5426 98.5355 82.6093 97.0461 83.0205 94.431C83.1534 90.9525 82.8837 88.4458 80.5468 85.7194C79.166 84.7989 78.2153 84.1651 77.1812 83.7286ZM75.3362 87.2916C74.0501 86.7775 72.5892 86.7006 67.9844 86.4583V99.0206H73.8961C73.9711 98.9956 74.0445 98.9712 74.1164 98.9473C76.2552 98.2359 77.0346 97.9767 78.3298 96.0647C78.679 92.922 78.8655 91.1027 77.3137 88.3518C76.4937 87.8637 75.9338 87.5305 75.3362 87.2916Z" fill="#577E70"/>
<path fill-rule="evenodd" clip-rule="evenodd" d="M108.686 11.4253C108.309 11.3303 107.928 11.2496 107.149 11.0844C106.937 11.2963 106.78 11.4533 106.648 11.6288C106.268 12.131 106.087 12.7841 105.391 15.3063C104.639 18.0771 103.881 20.8457 103.108 23.6106L102.438 26.0021L101.786 28.4196L101.128 30.7447C100.094 34.4887 98.5938 36.6286 95.222 38.6222L93.6632 39.3496C92.7423 39.7865 91.8195 40.2196 90.8921 40.6428C91.7671 35.0646 92.7552 28.541 90.9672 23.1069C89.2658 19.6016 87.0874 17.1021 83.5025 15.5181L83.3933 15.5085C81.0691 15.3044 79.1819 15.1386 77.0078 16.107L75.374 16.996C72.732 18.3379 70.1233 19.7139 67.5687 21.2162C63.6451 23.6823 60.4667 27.0255 59.3622 31.6049L59.1168 33.2532H56.8999C54.9119 34.5785 52.8857 35.7798 50.8107 36.9624L49.3718 37.7793C47.6942 38.7346 46.0162 39.6893 44.3376 40.6428C44.6528 39.6386 44.973 38.6363 45.293 37.6345L45.2932 37.6339C47.8354 29.6756 50.3649 21.7574 50.2493 13.3012H47.2935C45.8836 14.3895 45.0971 15.4849 44.1608 16.9975L43.2638 18.6818L42.2544 20.5561C41.6399 21.708 41.0326 22.8789 40.4217 24.0567L40.4217 24.0567C37.5151 29.6604 34.5279 35.4197 30.3031 40.0337C27.5134 42.6602 25.4145 44.238 21.4298 44.3376L19.9519 42.1207C19.627 37.1661 20.7078 33.5873 22.5181 28.9897C24.5924 23.7364 26.3985 19.0146 26.6026 13.3012C25.8372 13.3194 25.4153 13.3294 25.003 13.3979C24.4963 13.4822 24.0044 13.655 22.9078 14.0402L22.9078 14.0402L22.9078 14.0402C22.1385 15.4628 21.8516 15.9934 21.6152 16.5456C21.4746 16.8741 21.3518 17.2103 21.156 17.7464L20.6447 19.3053C20.0759 20.9386 19.5192 22.5729 18.9896 24.2193L18.474 25.8636C17.3213 29.5261 16.2838 33.181 15.5182 36.948C15.1418 40.7908 15.1115 44.1449 17.3656 47.432C20.1285 49.4351 22.5603 49.2226 25.8636 48.7713C27.8582 48.1607 29.2552 47.7331 30.4782 47.0107C33.3373 45.322 35.245 42.0227 41.6127 31.0103L41.6127 31.0103L42.8597 28.8194C42.6018 29.9736 42.3353 31.1259 42.0659 32.2775C39.8739 40.9772 38.1803 47.0348 30.358 51.8455C27.359 53.6358 25.1636 55.7379 22.9078 58.3778C22.6892 58.6403 22.471 58.9006 22.2541 59.1595L22.2539 59.1597L22.2538 59.1599C18.8703 63.1976 15.7875 66.8765 16.2571 72.4181C17.2377 74.568 18.0408 75.2592 19.9519 76.8518C21.1581 77.1199 21.781 77.2583 22.4056 77.2671C23.0725 77.2764 23.7414 77.138 25.1244 76.8519L25.1246 76.8518C32.2514 72.9084 32.2514 72.9084 38.8416 55.8376C38.971 55.48 39.0962 55.128 39.2194 54.7815C40.4031 51.453 41.4052 48.6353 44.2481 46.2398L46.5545 45.0765L48.9273 43.6563L51.2654 42.3054C52.6501 41.5035 54.0354 40.7026 55.422 39.9038C55.3762 41.7579 55.3398 43.6117 55.3138 45.4662L55.2835 47.7553C55.2778 47.9811 55.2718 48.2052 55.2659 48.4277C55.1689 52.0718 55.0835 55.284 56.4294 58.7704C58.0414 61.2018 59.3797 63.1101 62.0727 64.2895C65.7847 64.7373 69.7548 65.0676 73.2783 63.6429L74.635 62.8116C80.3878 59.343 85.038 54.1214 87.3648 47.7784L87.9363 45.8155C89.1155 45.8155 89.6675 45.8155 90.2017 45.7182C90.6718 45.6325 91.1282 45.4716 91.9861 45.1689L93.9865 44.3376L96.0042 43.5062L97.5428 42.8597C97.3764 43.3944 97.2092 43.9278 97.0424 44.4601L97.0423 44.4605C95.2247 50.2593 93.4434 55.9425 93.109 62.0726C94.679 62.5427 95.8576 62.8957 97.0571 62.9939C100.668 63.2898 104.469 61.2772 119.712 53.2051V50.2493L118.511 49.7412C117.698 49.6343 117.261 49.5768 116.841 49.6355C116.354 49.7035 115.889 49.9275 114.885 50.4109C112.279 51.7492 109.641 52.8916 106.941 54.0234L105.025 54.8216C102.778 55.7622 100.53 56.7023 98.2817 57.6389C99.6202 52.7094 100.972 47.7839 102.346 42.864L102.993 40.5504L103.045 40.3633C104.263 35.9911 105.482 31.6205 106.803 27.278C108.37 22.1325 109.81 17.2318 110.105 11.8233L110.105 11.8232L110.105 11.8231C109.405 11.62 109.047 11.5162 108.686 11.4253ZM67.2454 26.6025H66.5065C60.659 34.2646 58.1188 44.3888 59.1168 53.944C60.1144 56.856 60.9725 58.8098 63.5506 60.5946C66.6929 61.1333 69.4298 60.8308 72.4643 59.9019C77.6284 56.276 81.0035 51.5423 83.5025 45.8154C83.1476 45.7024 82.7916 45.5906 82.4355 45.4787C79.0477 44.4148 75.6387 43.3442 72.8338 41.1046C68.7503 36.9214 67.6409 33.9812 67.3031 28.2247L67.2454 26.6025ZM83.5025 19.9517C85.1706 21.3493 86.2267 22.4442 87.1973 24.3855C87.5818 30.4326 87.6883 35.8531 84.9805 41.3816C79.974 41.4627 77.2729 40.2644 73.6218 36.8641C71.7279 34.6705 71.0117 32.9789 70.5707 30.1125C71.1734 25.5921 73.771 22.7521 77.2214 19.9056C79.6736 18.986 81.0172 19.1586 83.5025 19.9517ZM32.488 60.2946C33.669 57.9914 34.7311 55.9203 34.7311 53.205C30.7074 55.8875 27.4769 59.5147 24.2789 63.1204C24.1741 63.2478 24.0712 63.3726 23.9701 63.4951C21.7037 66.2427 20.3764 67.8518 20.6909 71.6791L24.3857 72.418C27.3288 69.4749 29.3528 66.4427 31.2456 62.761L32.0524 61.1489C32.1982 60.8596 32.344 60.5754 32.488 60.2946Z" fill="#96C0B2"/>
<path d="M174.395 25.1246C174.882 25.1246 175.37 25.1246 175.873 25.1246C175.873 25.6123 175.873 26.1001 175.873 26.6026C176.604 26.6026 177.336 26.6026 178.09 26.6026C178.09 27.0903 178.09 27.578 178.09 28.0805C180.04 28.0805 181.991 28.0805 184.001 28.0805C183.27 29.1778 183.27 29.1778 182.523 30.2974C182.036 30.2974 181.548 30.2974 181.045 30.2974C181.289 30.7851 181.533 31.2728 181.784 31.7753C181.883 33.75 181.816 35.7084 181.784 37.687C181.297 37.687 180.809 37.687 180.306 37.687C179.819 35.98 179.331 34.273 178.829 32.5142C176.609 33.0281 176.609 33.0281 174.395 33.9922C173.679 35.4941 173.679 35.4941 173.656 36.948C170.7 33.4379 170.7 33.4379 170.7 31.7753C171.729 31.7981 171.729 31.7981 172.778 31.8215C175.151 31.8918 175.151 31.8918 177.351 31.0363C176.619 29.9847 176.619 29.9847 175.873 28.9118C174.395 26.6026 174.395 26.6026 174.395 25.1246Z" fill="#E5E8EA"/>
<path d="M90.1069 62.627C90.8537 62.6879 91.6005 62.7489 92.37 62.8117C93.8479 65.0286 93.8479 65.0286 93.7093 66.6912C92.966 69.2071 91.9706 71.5045 90.8921 73.8961C90.4043 73.8961 89.9166 73.8961 89.4141 73.8961C86.4122 67.9825 86.4122 67.9825 86.5968 65.0286C87.5147 62.7693 87.5462 62.8449 90.1069 62.627Z" fill="#DEE1E3"/>
<path d="M93.109 75.374C94.587 76.4824 94.587 76.4824 95.3259 77.5909C92.9924 79.1465 92.4041 79.2557 89.7375 79.2074C88.8674 79.2002 88.8674 79.2002 87.9796 79.1929C86.4584 79.0688 86.4584 79.0688 84.9805 78.3298C85.2243 77.5983 85.4682 76.8667 85.7194 76.113C88.0621 74.9416 90.5572 75.0609 93.109 75.374Z" fill="#89979E"/>
<path d="M169.222 34.7312C169.466 35.4628 169.71 36.1943 169.961 36.9481C169.229 37.1919 168.498 37.4358 167.744 37.687C167.5 37.4432 167.256 37.1993 167.005 36.9481C166.274 37.6797 165.542 38.4112 164.788 39.165C164.788 36.9481 164.788 36.9481 165.758 35.7011C167.005 34.7312 167.005 34.7312 169.222 34.7312Z" fill="#7FA198"/>
<path d="M170.7 31.7753C172.529 32.1411 172.529 32.1411 174.395 32.5142C174.395 33.7335 174.395 34.9528 174.395 36.209C173.663 36.5748 173.663 36.5748 172.917 36.948C170.7 33.4379 170.7 33.4379 170.7 31.7753Z" fill="#BFC7CB"/>
</g>
<defs>
<clipPath id="clip0_143_265">
<rect width="188.435" height="129.318" fill="white"/>
</clipPath>
</defs>
</svg>
