<svg width="556" height="201" viewBox="0 0 556 201" fill="none" xmlns="http://www.w3.org/2000/svg">
<path d="M23.376 34.72C25.328 35.136 26.896 36.112 28.08 37.648C29.264 39.152 29.856 40.88 29.856 42.832C29.856 45.648 28.864 47.888 26.88 49.552C24.928 51.184 22.192 52 18.672 52H2.976V18.304H18.144C21.568 18.304 24.24 19.088 26.16 20.656C28.112 22.224 29.088 24.352 29.088 27.04C29.088 29.024 28.56 30.672 27.504 31.984C26.48 33.296 25.104 34.208 23.376 34.72ZM11.184 31.936H16.56C17.904 31.936 18.928 31.648 19.632 31.072C20.368 30.464 20.736 29.584 20.736 28.432C20.736 27.28 20.368 26.4 19.632 25.792C18.928 25.184 17.904 24.88 16.56 24.88H11.184V31.936ZM17.232 45.376C18.608 45.376 19.664 45.072 20.4 44.464C21.168 43.824 21.552 42.912 21.552 41.728C21.552 40.544 21.152 39.616 20.352 38.944C19.584 38.272 18.512 37.936 17.136 37.936H11.184V45.376H17.232ZM46.8086 52.384C44.1846 52.384 41.8166 51.824 39.7046 50.704C37.6246 49.584 35.9766 47.984 34.7606 45.904C33.5766 43.824 32.9846 41.392 32.9846 38.608C32.9846 35.856 33.5926 33.44 34.8086 31.36C36.0246 29.248 37.6886 27.632 39.8006 26.512C41.9126 25.392 44.2806 24.832 46.9046 24.832C49.5286 24.832 51.8966 25.392 54.0086 26.512C56.1206 27.632 57.7846 29.248 59.0006 31.36C60.2166 33.44 60.8246 35.856 60.8246 38.608C60.8246 41.36 60.2006 43.792 58.9526 45.904C57.7366 47.984 56.0566 49.584 53.9126 50.704C51.8006 51.824 49.4326 52.384 46.8086 52.384ZM46.8086 45.28C48.3766 45.28 49.7046 44.704 50.7926 43.552C51.9126 42.4 52.4726 40.752 52.4726 38.608C52.4726 36.464 51.9286 34.816 50.8406 33.664C49.7846 32.512 48.4726 31.936 46.9046 31.936C45.3046 31.936 43.9766 32.512 42.9206 33.664C41.8646 34.784 41.3366 36.432 41.3366 38.608C41.3366 40.752 41.8486 42.4 42.8726 43.552C43.9286 44.704 45.2406 45.28 46.8086 45.28ZM77.3711 52.384C74.7471 52.384 72.3791 51.824 70.2671 50.704C68.1871 49.584 66.5391 47.984 65.3231 45.904C64.1391 43.824 63.5471 41.392 63.5471 38.608C63.5471 35.856 64.1551 33.44 65.3711 31.36C66.5871 29.248 68.2511 27.632 70.3631 26.512C72.4751 25.392 74.8431 24.832 77.4671 24.832C80.0911 24.832 82.4591 25.392 84.5711 26.512C86.6831 27.632 88.3471 29.248 89.5631 31.36C90.7791 33.44 91.3871 35.856 91.3871 38.608C91.3871 41.36 90.7631 43.792 89.5151 45.904C88.2991 47.984 86.6191 49.584 84.4751 50.704C82.3631 51.824 79.9951 52.384 77.3711 52.384ZM77.3711 45.28C78.9391 45.28 80.2671 44.704 81.3551 43.552C82.4751 42.4 83.0351 40.752 83.0351 38.608C83.0351 36.464 82.4911 34.816 81.4031 33.664C80.3471 32.512 79.0351 31.936 77.4671 31.936C75.8671 31.936 74.5391 32.512 73.4831 33.664C72.4271 34.784 71.8991 36.432 71.8991 38.608C71.8991 40.752 72.4111 42.4 73.4351 43.552C74.4911 44.704 75.8031 45.28 77.3711 45.28ZM112.11 52L103.95 40.768V52H95.7416V16.48H103.95V36.112L112.062 25.216H122.19L111.054 38.656L122.286 52H112.11ZM133.953 38.56C133.953 35.808 134.465 33.392 135.489 31.312C136.545 29.232 137.969 27.632 139.761 26.512C141.553 25.392 143.553 24.832 145.761 24.832C147.649 24.832 149.297 25.216 150.705 25.984C152.145 26.752 153.249 27.76 154.017 29.008V25.216H162.225V52H154.017V48.208C153.217 49.456 152.097 50.464 150.657 51.232C149.249 52 147.601 52.384 145.713 52.384C143.537 52.384 141.553 51.824 139.761 50.704C137.969 49.552 136.545 47.936 135.489 45.856C134.465 43.744 133.953 41.312 133.953 38.56ZM154.017 38.608C154.017 36.56 153.441 34.944 152.289 33.76C151.169 32.576 149.793 31.984 148.161 31.984C146.529 31.984 145.137 32.576 143.985 33.76C142.865 34.912 142.305 36.512 142.305 38.56C142.305 40.608 142.865 42.24 143.985 43.456C145.137 44.64 146.529 45.232 148.161 45.232C149.793 45.232 151.169 44.64 152.289 43.456C153.441 42.272 154.017 40.656 154.017 38.608ZM271.195 99.216L254.395 138.72H245.563L251.707 125.088L240.811 99.216H249.979L256.171 115.968L262.315 99.216H271.195ZM286.356 126.384C283.732 126.384 281.364 125.824 279.252 124.704C277.172 123.584 275.524 121.984 274.308 119.904C273.124 117.824 272.532 115.392 272.532 112.608C272.532 109.856 273.14 107.44 274.355 105.36C275.572 103.248 277.236 101.632 279.348 100.512C281.46 99.392 283.828 98.832 286.452 98.832C289.076 98.832 291.444 99.392 293.556 100.512C295.668 101.632 297.332 103.248 298.548 105.36C299.764 107.44 300.372 109.856 300.372 112.608C300.372 115.36 299.748 117.792 298.5 119.904C297.284 121.984 295.604 123.584 293.46 124.704C291.348 125.824 288.98 126.384 286.356 126.384ZM286.356 119.28C287.924 119.28 289.252 118.704 290.34 117.552C291.46 116.4 292.02 114.752 292.02 112.608C292.02 110.464 291.476 108.816 290.388 107.664C289.332 106.512 288.02 105.936 286.452 105.936C284.852 105.936 283.524 106.512 282.468 107.664C281.412 108.784 280.884 110.432 280.884 112.608C280.884 114.752 281.396 116.4 282.42 117.552C283.476 118.704 284.788 119.28 286.356 119.28ZM331.174 99.216V126H322.966V122.352C322.134 123.536 320.998 124.496 319.558 125.232C318.15 125.936 316.582 126.288 314.854 126.288C312.806 126.288 310.998 125.84 309.43 124.944C307.862 124.016 306.646 122.688 305.782 120.96C304.918 119.232 304.486 117.2 304.486 114.864V99.216H312.646V113.76C312.646 115.552 313.11 116.944 314.038 117.936C314.966 118.928 316.214 119.424 317.782 119.424C319.382 119.424 320.646 118.928 321.574 117.936C322.502 116.944 322.966 115.552 322.966 113.76V99.216H331.174ZM345.278 103.68C346.238 102.208 347.438 101.056 348.878 100.224C350.318 99.36 351.918 98.928 353.678 98.928V107.616H351.422C349.374 107.616 347.838 108.064 346.814 108.96C345.79 109.824 345.278 111.36 345.278 113.568V126H337.07V99.216H345.278V103.68ZM16.416 180.032H12V200H3.792V180.032H0.816V173.216H3.792V172.448C3.792 169.152 4.736 166.656 6.624 164.96C8.512 163.232 11.28 162.368 14.928 162.368C15.536 162.368 15.984 162.384 16.272 162.416V169.376C14.704 169.28 13.6 169.504 12.96 170.048C12.32 170.592 12 171.568 12 172.976V173.216H16.416V180.032ZM18.6409 186.56C18.6409 183.808 19.1529 181.392 20.1769 179.312C21.2329 177.232 22.6569 175.632 24.4489 174.512C26.2409 173.392 28.2409 172.832 30.4489 172.832C32.3369 172.832 33.9849 173.216 35.3929 173.984C36.8329 174.752 37.9369 175.76 38.7049 177.008V173.216H46.9129V200H38.7049V196.208C37.9049 197.456 36.7849 198.464 35.3449 199.232C33.9369 200 32.2889 200.384 30.4009 200.384C28.2249 200.384 26.2409 199.824 24.4489 198.704C22.6569 197.552 21.2329 195.936 20.1769 193.856C19.1529 191.744 18.6409 189.312 18.6409 186.56ZM38.7049 186.608C38.7049 184.56 38.1289 182.944 36.9769 181.76C35.8569 180.576 34.4809 179.984 32.8489 179.984C31.2169 179.984 29.8249 180.576 28.6729 181.76C27.5529 182.912 26.9929 184.512 26.9929 186.56C26.9929 188.608 27.5529 190.24 28.6729 191.456C29.8249 192.64 31.2169 193.232 32.8489 193.232C34.4809 193.232 35.8569 192.64 36.9769 191.456C38.1289 190.272 38.7049 188.656 38.7049 186.608ZM64.899 192.32L70.707 173.216H79.443L69.939 200H59.811L50.307 173.216H59.091L64.899 192.32ZM95.0899 200.384C92.4659 200.384 90.0979 199.824 87.9859 198.704C85.9059 197.584 84.2579 195.984 83.0419 193.904C81.8579 191.824 81.2659 189.392 81.2659 186.608C81.2659 183.856 81.8739 181.44 83.0899 179.36C84.3059 177.248 85.9699 175.632 88.0819 174.512C90.1939 173.392 92.5619 172.832 95.1859 172.832C97.8099 172.832 100.178 173.392 102.29 174.512C104.402 175.632 106.066 177.248 107.282 179.36C108.498 181.44 109.106 183.856 109.106 186.608C109.106 189.36 108.482 191.792 107.234 193.904C106.018 195.984 104.338 197.584 102.194 198.704C100.082 199.824 97.7139 200.384 95.0899 200.384ZM95.0899 193.28C96.6579 193.28 97.9859 192.704 99.0739 191.552C100.194 190.4 100.754 188.752 100.754 186.608C100.754 184.464 100.21 182.816 99.1219 181.664C98.0659 180.512 96.7539 179.936 95.1859 179.936C93.5859 179.936 92.2579 180.512 91.2019 181.664C90.1459 182.784 89.6179 184.432 89.6179 186.608C89.6179 188.752 90.1299 190.4 91.1539 191.552C92.2099 192.704 93.5219 193.28 95.0899 193.28ZM139.908 173.216V200H131.7V196.352C130.868 197.536 129.732 198.496 128.292 199.232C126.884 199.936 125.316 200.288 123.588 200.288C121.54 200.288 119.732 199.84 118.164 198.944C116.596 198.016 115.38 196.688 114.516 194.96C113.652 193.232 113.22 191.2 113.22 188.864V173.216H121.38V187.76C121.38 189.552 121.844 190.944 122.772 191.936C123.7 192.928 124.948 193.424 126.516 193.424C128.116 193.424 129.38 192.928 130.308 191.936C131.236 190.944 131.7 189.552 131.7 187.76V173.216H139.908ZM154.012 177.68C154.972 176.208 156.172 175.056 157.612 174.224C159.052 173.36 160.652 172.928 162.412 172.928V181.616H160.156C158.108 181.616 156.572 182.064 155.548 182.96C154.524 183.824 154.012 185.36 154.012 187.568V200H145.804V173.216H154.012V177.68ZM170.463 170.432C169.023 170.432 167.839 170.016 166.911 169.184C166.015 168.32 165.567 167.264 165.567 166.016C165.567 164.736 166.015 163.68 166.911 162.848C167.839 161.984 169.023 161.552 170.463 161.552C171.871 161.552 173.023 161.984 173.919 162.848C174.847 163.68 175.311 164.736 175.311 166.016C175.311 167.264 174.847 168.32 173.919 169.184C173.023 170.016 171.871 170.432 170.463 170.432ZM174.543 173.216V200H166.335V173.216H174.543ZM195.42 193.04V200H191.244C188.268 200 185.948 199.28 184.284 197.84C182.62 196.368 181.788 193.984 181.788 190.688V180.032H178.524V173.216H181.788V166.688H189.996V173.216H195.372V180.032H189.996V190.784C189.996 191.584 190.188 192.16 190.572 192.512C190.956 192.864 191.596 193.04 192.492 193.04H195.42ZM225.24 186.176C225.24 186.944 225.192 187.744 225.096 188.576H206.52C206.648 190.24 207.176 191.52 208.104 192.416C209.064 193.28 210.232 193.712 211.608 193.712C213.656 193.712 215.08 192.848 215.88 191.12H224.616C224.168 192.88 223.352 194.464 222.168 195.872C221.016 197.28 219.56 198.384 217.8 199.184C216.04 199.984 214.072 200.384 211.896 200.384C209.272 200.384 206.936 199.824 204.888 198.704C202.84 197.584 201.24 195.984 200.088 193.904C198.936 191.824 198.36 189.392 198.36 186.608C198.36 183.824 198.92 181.392 200.04 179.312C201.192 177.232 202.792 175.632 204.84 174.512C206.888 173.392 209.24 172.832 211.896 172.832C214.488 172.832 216.792 173.376 218.808 174.464C220.824 175.552 222.392 177.104 223.512 179.12C224.664 181.136 225.24 183.488 225.24 186.176ZM216.84 184.016C216.84 182.608 216.36 181.488 215.4 180.656C214.44 179.824 213.24 179.408 211.8 179.408C210.424 179.408 209.256 179.808 208.296 180.608C207.368 181.408 206.792 182.544 206.568 184.016H216.84Z" fill="#EEEEEE"/>
<path d="M218.239 7.072V52H207.295V33.504H190.271V52H179.327V7.072H190.271V24.672H207.295V7.072H218.239ZM242.396 52.512C238.897 52.512 235.74 51.7653 232.924 50.272C230.151 48.7787 227.953 46.6453 226.332 43.872C224.753 41.0987 223.964 37.856 223.964 34.144C223.964 30.4747 224.775 27.2533 226.396 24.48C228.017 21.664 230.236 19.5093 233.052 18.016C235.868 16.5227 239.025 15.776 242.524 15.776C246.023 15.776 249.18 16.5227 251.996 18.016C254.812 19.5093 257.031 21.664 258.652 24.48C260.273 27.2533 261.084 30.4747 261.084 34.144C261.084 37.8133 260.252 41.056 258.588 43.872C256.967 46.6453 254.727 48.7787 251.868 50.272C249.052 51.7653 245.895 52.512 242.396 52.512ZM242.396 43.04C244.487 43.04 246.257 42.272 247.708 40.736C249.201 39.2 249.948 37.0027 249.948 34.144C249.948 31.2853 249.223 29.088 247.772 27.552C246.364 26.016 244.615 25.248 242.524 25.248C240.391 25.248 238.62 26.016 237.212 27.552C235.804 29.0453 235.1 31.2427 235.1 34.144C235.1 37.0027 235.783 39.2 237.148 40.736C238.556 42.272 240.305 43.04 242.396 43.04ZM277.834 4.64V52H266.89V4.64H277.834ZM291.269 12.576C289.349 12.576 287.77 12.0213 286.533 10.912C285.338 9.76 284.741 8.352 284.741 6.688C284.741 4.98133 285.338 3.57333 286.533 2.464C287.77 1.312 289.349 0.735996 291.269 0.735996C293.146 0.735996 294.682 1.312 295.877 2.464C297.114 3.57333 297.733 4.98133 297.733 6.688C297.733 8.352 297.114 9.76 295.877 10.912C294.682 12.0213 293.146 12.576 291.269 12.576ZM296.709 16.288V52H285.765V16.288H296.709ZM302.464 34.08C302.464 30.4107 303.147 27.1893 304.512 24.416C305.92 21.6427 307.819 19.5093 310.208 18.016C312.597 16.5227 315.264 15.776 318.208 15.776C320.555 15.776 322.688 16.2667 324.608 17.248C326.571 18.2293 328.107 19.552 329.216 21.216V4.64H340.16V52H329.216V46.88C328.192 48.5867 326.72 49.952 324.8 50.976C322.923 52 320.725 52.512 318.208 52.512C315.264 52.512 312.597 51.7653 310.208 50.272C307.819 48.736 305.92 46.5813 304.512 43.808C303.147 40.992 302.464 37.7493 302.464 34.08ZM329.216 34.144C329.216 31.4133 328.448 29.2587 326.912 27.68C325.419 26.1013 323.584 25.312 321.408 25.312C319.232 25.312 317.376 26.1013 315.84 27.68C314.347 29.216 313.6 31.3493 313.6 34.08C313.6 36.8107 314.347 38.9867 315.84 40.608C317.376 42.1867 319.232 42.976 321.408 42.976C323.584 42.976 325.419 42.1867 326.912 40.608C328.448 39.0293 329.216 36.8747 329.216 34.144ZM345.901 34.08C345.901 30.4107 346.584 27.1893 347.949 24.416C349.357 21.6427 351.256 19.5093 353.645 18.016C356.035 16.5227 358.701 15.776 361.645 15.776C364.163 15.776 366.36 16.288 368.237 17.312C370.157 18.336 371.629 19.68 372.653 21.344V16.288H383.597V52H372.653V46.944C371.587 48.608 370.093 49.952 368.173 50.976C366.296 52 364.099 52.512 361.581 52.512C358.68 52.512 356.035 51.7653 353.645 50.272C351.256 48.736 349.357 46.5813 347.949 43.808C346.584 40.992 345.901 37.7493 345.901 34.08ZM372.653 34.144C372.653 31.4133 371.885 29.2587 370.349 27.68C368.856 26.1013 367.021 25.312 364.845 25.312C362.669 25.312 360.813 26.1013 359.277 27.68C357.784 29.216 357.037 31.3493 357.037 34.08C357.037 36.8107 357.784 38.9867 359.277 40.608C360.813 42.1867 362.669 42.976 364.845 42.976C367.021 42.976 368.856 42.1867 370.349 40.608C371.885 39.0293 372.653 36.8747 372.653 34.144ZM427.995 16.288L405.595 68.96H393.819L402.011 50.784L387.483 16.288H399.707L407.963 38.624L416.155 16.288H427.995ZM254.316 162.092C258.312 162.092 261.804 162.884 264.792 164.468C267.78 166.052 270.084 168.284 271.704 171.164C273.36 174.008 274.188 177.302 274.188 181.046C274.188 184.754 273.36 188.048 271.704 190.928C270.084 193.808 267.762 196.04 264.738 197.624C261.75 199.208 258.276 200 254.316 200H240.114V162.092H254.316ZM253.722 192.008C257.214 192.008 259.932 191.054 261.876 189.146C263.82 187.238 264.792 184.538 264.792 181.046C264.792 177.554 263.82 174.836 261.876 172.892C259.932 170.948 257.214 169.976 253.722 169.976H249.348V192.008H253.722ZM307.752 184.448C307.752 185.312 307.698 186.212 307.59 187.148H286.692C286.836 189.02 287.43 190.46 288.474 191.468C289.554 192.44 290.868 192.926 292.416 192.926C294.72 192.926 296.322 191.954 297.222 190.01H307.05C306.546 191.99 305.628 193.772 304.296 195.356C303 196.94 301.362 198.182 299.382 199.082C297.402 199.982 295.188 200.432 292.74 200.432C289.788 200.432 287.16 199.802 284.856 198.542C282.552 197.282 280.752 195.482 279.456 193.142C278.16 190.802 277.512 188.066 277.512 184.934C277.512 181.802 278.142 179.066 279.402 176.726C280.698 174.386 282.498 172.586 284.802 171.326C287.106 170.066 289.752 169.436 292.74 169.436C295.656 169.436 298.248 170.048 300.516 171.272C302.784 172.496 304.548 174.242 305.808 176.51C307.104 178.778 307.752 181.424 307.752 184.448ZM298.302 182.018C298.302 180.434 297.762 179.174 296.682 178.238C295.602 177.302 294.252 176.834 292.632 176.834C291.084 176.834 289.77 177.284 288.69 178.184C287.646 179.084 286.998 180.362 286.746 182.018H298.302ZM324.881 200.432C322.253 200.432 319.913 199.982 317.861 199.082C315.809 198.182 314.189 196.958 313.001 195.41C311.813 193.826 311.147 192.062 311.003 190.118H320.129C320.237 191.162 320.723 192.008 321.587 192.656C322.451 193.304 323.513 193.628 324.773 193.628C325.925 193.628 326.807 193.412 327.419 192.98C328.067 192.512 328.391 191.918 328.391 191.198C328.391 190.334 327.941 189.704 327.041 189.308C326.141 188.876 324.683 188.408 322.667 187.904C320.507 187.4 318.707 186.878 317.267 186.338C315.827 185.762 314.585 184.88 313.541 183.692C312.497 182.468 311.975 180.83 311.975 178.778C311.975 177.05 312.443 175.484 313.379 174.08C314.351 172.64 315.755 171.506 317.591 170.678C319.463 169.85 321.677 169.436 324.233 169.436C328.013 169.436 330.983 170.372 333.143 172.244C335.339 174.116 336.599 176.6 336.923 179.696H328.391C328.247 178.652 327.779 177.824 326.987 177.212C326.231 176.6 325.223 176.294 323.963 176.294C322.883 176.294 322.055 176.51 321.479 176.942C320.903 177.338 320.615 177.896 320.615 178.616C320.615 179.48 321.065 180.128 321.965 180.56C322.901 180.992 324.341 181.424 326.285 181.856C328.517 182.432 330.335 183.008 331.739 183.584C333.143 184.124 334.367 185.024 335.411 186.284C336.491 187.508 337.049 189.164 337.085 191.252C337.085 193.016 336.581 194.6 335.573 196.004C334.601 197.372 333.179 198.452 331.307 199.244C329.471 200.036 327.329 200.432 324.881 200.432ZM359.529 192.17V200H354.831C351.483 200 348.873 199.19 347.001 197.57C345.129 195.914 344.193 193.232 344.193 189.524V177.536H340.521V169.868H344.193V162.524H353.427V169.868H359.475V177.536H353.427V189.632C353.427 190.532 353.643 191.18 354.075 191.576C354.507 191.972 355.227 192.17 356.235 192.17H359.529ZM369.316 166.736C367.696 166.736 366.364 166.268 365.32 165.332C364.312 164.36 363.808 163.172 363.808 161.768C363.808 160.328 364.312 159.14 365.32 158.204C366.364 157.232 367.696 156.746 369.316 156.746C370.9 156.746 372.196 157.232 373.204 158.204C374.248 159.14 374.77 160.328 374.77 161.768C374.77 163.172 374.248 164.36 373.204 165.332C372.196 166.268 370.9 166.736 369.316 166.736ZM373.906 169.868V200H364.672V169.868H373.906ZM398.958 169.544C402.486 169.544 405.294 170.696 407.382 173C409.506 175.268 410.568 178.4 410.568 182.396V200H401.388V183.638C401.388 181.622 400.866 180.056 399.822 178.94C398.778 177.824 397.374 177.266 395.61 177.266C393.846 177.266 392.442 177.824 391.398 178.94C390.354 180.056 389.832 181.622 389.832 183.638V200H380.598V169.868H389.832V173.864C390.768 172.532 392.028 171.488 393.612 170.732C395.196 169.94 396.978 169.544 398.958 169.544ZM415.149 184.88C415.149 181.784 415.725 179.066 416.877 176.726C418.065 174.386 419.667 172.586 421.683 171.326C423.699 170.066 425.949 169.436 428.433 169.436C430.557 169.436 432.411 169.868 433.995 170.732C435.615 171.596 436.857 172.73 437.721 174.134V169.868H446.955V200H437.721V195.734C436.821 197.138 435.561 198.272 433.941 199.136C432.357 200 430.503 200.432 428.379 200.432C425.931 200.432 423.699 199.802 421.683 198.542C419.667 197.246 418.065 195.428 416.877 193.088C415.725 190.712 415.149 187.976 415.149 184.88ZM437.721 184.934C437.721 182.63 437.073 180.812 435.777 179.48C434.517 178.148 432.969 177.482 431.133 177.482C429.297 177.482 427.731 178.148 426.435 179.48C425.175 180.776 424.545 182.576 424.545 184.88C424.545 187.184 425.175 189.02 426.435 190.388C427.731 191.72 429.297 192.386 431.133 192.386C432.969 192.386 434.517 191.72 435.777 190.388C437.073 189.056 437.721 187.238 437.721 184.934ZM470.429 192.17V200H465.731C462.383 200 459.773 199.19 457.901 197.57C456.029 195.914 455.093 193.232 455.093 189.524V177.536H451.421V169.868H455.093V162.524H464.327V169.868H470.375V177.536H464.327V189.632C464.327 190.532 464.543 191.18 464.975 191.576C465.407 191.972 466.127 192.17 467.135 192.17H470.429ZM480.217 166.736C478.597 166.736 477.265 166.268 476.221 165.332C475.213 164.36 474.709 163.172 474.709 161.768C474.709 160.328 475.213 159.14 476.221 158.204C477.265 157.232 478.597 156.746 480.217 156.746C481.801 156.746 483.097 157.232 484.105 158.204C485.149 159.14 485.671 160.328 485.671 161.768C485.671 163.172 485.149 164.36 484.105 165.332C483.097 166.268 481.801 166.736 480.217 166.736ZM484.807 169.868V200H475.573V169.868H484.807ZM505.214 200.432C502.262 200.432 499.598 199.802 497.222 198.542C494.882 197.282 493.028 195.482 491.66 193.142C490.328 190.802 489.662 188.066 489.662 184.934C489.662 181.838 490.346 179.12 491.714 176.78C493.082 174.404 494.954 172.586 497.33 171.326C499.706 170.066 502.37 169.436 505.322 169.436C508.274 169.436 510.938 170.066 513.314 171.326C515.69 172.586 517.562 174.404 518.93 176.78C520.298 179.12 520.982 181.838 520.982 184.934C520.982 188.03 520.28 190.766 518.876 193.142C517.508 195.482 515.618 197.282 513.206 198.542C510.83 199.802 508.166 200.432 505.214 200.432ZM505.214 192.44C506.978 192.44 508.472 191.792 509.696 190.496C510.956 189.2 511.586 187.346 511.586 184.934C511.586 182.522 510.974 180.668 509.75 179.372C508.562 178.076 507.086 177.428 505.322 177.428C503.522 177.428 502.028 178.076 500.84 179.372C499.652 180.632 499.058 182.486 499.058 184.934C499.058 187.346 499.634 189.2 500.786 190.496C501.974 191.792 503.45 192.44 505.214 192.44ZM544.241 169.544C547.769 169.544 550.577 170.696 552.665 173C554.789 175.268 555.851 178.4 555.851 182.396V200H546.671V183.638C546.671 181.622 546.149 180.056 545.105 178.94C544.061 177.824 542.657 177.266 540.893 177.266C539.129 177.266 537.725 177.824 536.681 178.94C535.637 180.056 535.115 181.622 535.115 183.638V200H525.881V169.868H535.115V173.864C536.051 172.532 537.311 171.488 538.895 170.732C540.479 169.94 542.261 169.544 544.241 169.544Z" fill="#96BFB1"/>
<path d="M9.32 106.84C9.98667 105.8 10.9067 104.96 12.08 104.32C13.2533 103.68 14.6267 103.36 16.2 103.36C18.04 103.36 19.7067 103.827 21.2 104.76C22.6933 105.693 23.8667 107.027 24.72 108.76C25.6 110.493 26.04 112.507 26.04 114.8C26.04 117.093 25.6 119.12 24.72 120.88C23.8667 122.613 22.6933 123.96 21.2 124.92C19.7067 125.853 18.04 126.32 16.2 126.32C14.6533 126.32 13.28 126 12.08 125.36C10.9067 124.72 9.98667 123.893 9.32 122.88V136.64H2.48V103.68H9.32V106.84ZM19.08 114.8C19.08 113.093 18.6 111.76 17.64 110.8C16.7067 109.813 15.5467 109.32 14.16 109.32C12.8 109.32 11.64 109.813 10.68 110.8C9.74667 111.787 9.28 113.133 9.28 114.84C9.28 116.547 9.74667 117.893 10.68 118.88C11.64 119.867 12.8 120.36 14.16 120.36C15.52 120.36 16.68 119.867 17.64 118.88C18.6 117.867 19.08 116.507 19.08 114.8ZM28.2684 114.8C28.2684 112.507 28.6951 110.493 29.5484 108.76C30.4284 107.027 31.6151 105.693 33.1084 104.76C34.6018 103.827 36.2684 103.36 38.1084 103.36C39.6818 103.36 41.0551 103.68 42.2284 104.32C43.4284 104.96 44.3484 105.8 44.9884 106.84V103.68H51.8284V126H44.9884V122.84C44.3218 123.88 43.3884 124.72 42.1884 125.36C41.0151 126 39.6418 126.32 38.0684 126.32C36.2551 126.32 34.6018 125.853 33.1084 124.92C31.6151 123.96 30.4284 122.613 29.5484 120.88C28.6951 119.12 28.2684 117.093 28.2684 114.8ZM44.9884 114.84C44.9884 113.133 44.5084 111.787 43.5484 110.8C42.6151 109.813 41.4684 109.32 40.1084 109.32C38.7484 109.32 37.5884 109.813 36.6284 110.8C35.6951 111.76 35.2284 113.093 35.2284 114.8C35.2284 116.507 35.6951 117.867 36.6284 118.88C37.5884 119.867 38.7484 120.36 40.1084 120.36C41.4684 120.36 42.6151 119.867 43.5484 118.88C44.5084 117.893 44.9884 116.547 44.9884 114.84ZM55.4169 114.84C55.4169 112.52 55.8835 110.493 56.8169 108.76C57.7769 107.027 59.0969 105.693 60.7769 104.76C62.4835 103.827 64.4302 103.36 66.6169 103.36C69.4169 103.36 71.7502 104.093 73.6169 105.56C75.5102 107.027 76.7502 109.093 77.3369 111.76H70.0569C69.4435 110.053 68.2569 109.2 66.4969 109.2C65.2435 109.2 64.2435 109.693 63.4969 110.68C62.7502 111.64 62.3769 113.027 62.3769 114.84C62.3769 116.653 62.7502 118.053 63.4969 119.04C64.2435 120 65.2435 120.48 66.4969 120.48C68.2569 120.48 69.4435 119.627 70.0569 117.92H77.3369C76.7502 120.533 75.5102 122.587 73.6169 124.08C71.7235 125.573 69.3902 126.32 66.6169 126.32C64.4302 126.32 62.4835 125.853 60.7769 124.92C59.0969 123.987 57.7769 122.653 56.8169 120.92C55.8835 119.187 55.4169 117.16 55.4169 114.84ZM94.6356 126L87.8356 116.64V126H80.9956V96.4H87.8356V112.76L94.5956 103.68H103.036L93.7556 114.88L103.116 126H94.6356ZM104.362 114.8C104.362 112.507 104.789 110.493 105.642 108.76C106.522 107.027 107.709 105.693 109.202 104.76C110.696 103.827 112.362 103.36 114.202 103.36C115.776 103.36 117.149 103.68 118.322 104.32C119.522 104.96 120.442 105.8 121.082 106.84V103.68H127.922V126H121.082V122.84C120.416 123.88 119.482 124.72 118.282 125.36C117.109 126 115.736 126.32 114.162 126.32C112.349 126.32 110.696 125.853 109.202 124.92C107.709 123.96 106.522 122.613 105.642 120.88C104.789 119.12 104.362 117.093 104.362 114.8ZM121.082 114.84C121.082 113.133 120.602 111.787 119.642 110.8C118.709 109.813 117.562 109.32 116.202 109.32C114.842 109.32 113.682 109.813 112.722 110.8C111.789 111.76 111.322 113.093 111.322 114.8C111.322 116.507 111.789 117.867 112.722 118.88C113.682 119.867 114.842 120.36 116.202 120.36C117.562 120.36 118.709 119.867 119.642 118.88C120.602 117.893 121.082 116.547 121.082 114.84ZM141.351 103.36C142.924 103.36 144.297 103.68 145.471 104.32C146.671 104.96 147.591 105.8 148.231 106.84V103.68H155.071V125.96C155.071 128.013 154.657 129.867 153.831 131.52C153.031 133.2 151.791 134.533 150.111 135.52C148.457 136.507 146.391 137 143.911 137C140.604 137 137.924 136.213 135.871 134.64C133.817 133.093 132.644 130.987 132.351 128.32H139.111C139.324 129.173 139.831 129.84 140.631 130.32C141.431 130.827 142.417 131.08 143.591 131.08C145.004 131.08 146.124 130.667 146.951 129.84C147.804 129.04 148.231 127.747 148.231 125.96V122.8C147.564 123.84 146.644 124.693 145.471 125.36C144.297 126 142.924 126.32 141.351 126.32C139.511 126.32 137.844 125.853 136.351 124.92C134.857 123.96 133.671 122.613 132.791 120.88C131.937 119.12 131.511 117.093 131.511 114.8C131.511 112.507 131.937 110.493 132.791 108.76C133.671 107.027 134.857 105.693 136.351 104.76C137.844 103.827 139.511 103.36 141.351 103.36ZM148.231 114.84C148.231 113.133 147.751 111.787 146.791 110.8C145.857 109.813 144.711 109.32 143.351 109.32C141.991 109.32 140.831 109.813 139.871 110.8C138.937 111.76 138.471 113.093 138.471 114.8C138.471 116.507 138.937 117.867 139.871 118.88C140.831 119.867 141.991 120.36 143.351 120.36C144.711 120.36 145.857 119.867 146.791 118.88C147.751 117.893 148.231 116.547 148.231 114.84ZM181.059 114.48C181.059 115.12 181.019 115.787 180.939 116.48H165.459C165.566 117.867 166.006 118.933 166.779 119.68C167.579 120.4 168.552 120.76 169.699 120.76C171.406 120.76 172.592 120.04 173.259 118.6H180.539C180.166 120.067 179.486 121.387 178.499 122.56C177.539 123.733 176.326 124.653 174.859 125.32C173.392 125.987 171.752 126.32 169.939 126.32C167.752 126.32 165.806 125.853 164.099 124.92C162.392 123.987 161.059 122.653 160.099 120.92C159.139 119.187 158.659 117.16 158.659 114.84C158.659 112.52 159.126 110.493 160.059 108.76C161.019 107.027 162.352 105.693 164.059 104.76C165.766 103.827 167.726 103.36 169.939 103.36C172.099 103.36 174.019 103.813 175.699 104.72C177.379 105.627 178.686 106.92 179.619 108.6C180.579 110.28 181.059 112.24 181.059 114.48ZM174.059 112.68C174.059 111.507 173.659 110.573 172.859 109.88C172.059 109.187 171.059 108.84 169.859 108.84C168.712 108.84 167.739 109.173 166.939 109.84C166.166 110.507 165.686 111.453 165.499 112.68H174.059ZM205.584 120.2V126H202.104C199.624 126 197.691 125.4 196.304 124.2C194.917 122.973 194.224 120.987 194.224 118.24V109.36H191.504V103.68H194.224V98.24H201.064V103.68H205.544V109.36H201.064V118.32C201.064 118.987 201.224 119.467 201.544 119.76C201.864 120.053 202.397 120.2 203.144 120.2H205.584ZM219.554 126.32C217.367 126.32 215.394 125.853 213.634 124.92C211.901 123.987 210.527 122.653 209.514 120.92C208.527 119.187 208.034 117.16 208.034 114.84C208.034 112.547 208.541 110.533 209.554 108.8C210.567 107.04 211.954 105.693 213.714 104.76C215.474 103.827 217.447 103.36 219.634 103.36C221.821 103.36 223.794 103.827 225.554 104.76C227.314 105.693 228.701 107.04 229.714 108.8C230.727 110.533 231.234 112.547 231.234 114.84C231.234 117.133 230.714 119.16 229.674 120.92C228.661 122.653 227.261 123.987 225.474 124.92C223.714 125.853 221.741 126.32 219.554 126.32ZM219.554 120.4C220.861 120.4 221.967 119.92 222.874 118.96C223.807 118 224.274 116.627 224.274 114.84C224.274 113.053 223.821 111.68 222.914 110.72C222.034 109.76 220.941 109.28 219.634 109.28C218.301 109.28 217.194 109.76 216.314 110.72C215.434 111.653 214.994 113.027 214.994 114.84C214.994 116.627 215.421 118 216.274 118.96C217.154 119.92 218.247 120.4 219.554 120.4Z" fill="white"/>
</svg>
