<svg width="255" height="175" viewBox="0 0 255 175" fill="none" xmlns="http://www.w3.org/2000/svg">
<g clip-path="url(#clip0_30_2)">
<path d="M186 111C188.706 112.009 189.844 112.957 192 115C192.875 117.25 192.875 117.25 193 119C190.75 119.688 190.75 119.688 188 120C186.662 119.007 185.328 118.007 184 117C180.654 116.582 178.679 116.679 175.625 118.125C173.758 119.974 173.758 119.974 173.375 122.938C173.712 126.172 173.712 126.172 176.375 128.063C178.356 129.206 180.377 130.176 182.449 131.145C191.955 135.62 191.955 135.62 195 141C196.011 146.091 195.765 150.504 192.938 154.938C189.69 158.805 185.986 160.537 180.984 161.313C175.798 161.629 172.869 160.342 169 157C166.032 153.251 165 151.842 165 147C166.98 147 168.96 147 171 147C171.454 147.97 171.907 148.939 172.375 149.938C173.658 153.071 173.658 153.071 176 154C178.934 154.284 181.151 154.496 184 154C187.028 151.426 187.862 149.848 188.5 145.938C187.872 142.247 186.82 141.406 184 139C182.053 137.977 180.07 137.022 178.062 136.125C172.988 133.647 169.78 131.965 167 127C166.262 122.773 165.99 120.597 168.285 116.969C173.541 110.667 177.902 110.168 186 111Z" fill="#587F71"/>
<path fill-rule="evenodd" clip-rule="evenodd" d="M204 21C208.848 23.1423 211.8 26.5224 214.098 31.2656C216.476 38.4724 215.619 46.9603 213 54C216.334 54 218.853 53.9937 222 53L222 52.9995C222.626 52.042 222.936 51.5671 223.187 51.0627C223.434 50.5663 223.624 50.0414 224 49L226 47H229L230 52C224.432 57.326 218.018 62 210 62L209.227 64.6563C206.078 73.24 199.785 80.3061 192 85L190.164 86.125C185.101 88.1722 177.965 88.2486 172.922 86.125C168.747 82.9203 166.456 78.077 165.697 72.9558C165.561 70.7529 165.532 68.5819 165.562 66.375L165.588 63.9861C165.918 52.42 169.537 41.9551 177 33C179.8 30.555 182.748 28.7811 186 27L188.773 25.3086C194.436 21.9651 196.595 20.6909 198.858 20.4646C200.251 20.3252 201.684 20.5832 204 21ZM181 36H182L182.078 38.1953C182.535 45.9853 184.036 49.9642 189.562 55.625C193.358 58.6557 197.971 60.1045 202.556 61.5443L202.556 61.5444L202.557 61.5447C203.039 61.6959 203.52 61.8471 204 62L200 70L199.144 72.0352C197.669 74.5687 195.894 75.9227 193.562 77.6875L191.191 79.5117C186.785 82.504 182.159 82.6542 177 82C173.822 79.9632 173.125 78.318 171.75 74.8125C169.292 62.3176 172.289 49.0607 179.187 38.375L181 36ZM209 32.9999C207.686 30.3728 206.257 28.8911 204 26.9999C200.637 25.9265 198.819 25.693 195.5 26.9374C190.831 30.7895 187.316 34.6328 186.5 40.7499C187.094 44.6118 188.076 46.906 190.594 49.8866C195.813 54.8173 199.85 56.1025 207 55.9999C209.469 48.4398 209.415 40.8852 209 32.9999Z" fill="#96BFB1"/>
<path d="M52 112C61.57 112 71.14 112 81 112C81 113.65 81 115.3 81 117C77.04 117 73.08 117 69 117C69 131.19 69 145.38 69 160C67.02 160 65.04 160 63 160C63 145.81 63 131.62 63 117C59.37 117 55.74 117 52 117C52 115.35 52 113.7 52 112Z" fill="#587F71"/>
<path d="M120 111C121.98 111 123.96 111 126 111C126 127.17 126 143.34 126 160C124.02 160 122.04 160 120 160C120 143.83 120 127.66 120 111Z" fill="#557B6F"/>
<path fill-rule="evenodd" clip-rule="evenodd" d="M155.525 113.444C152.644 112 149.039 112 135 112V160H141V139C141.925 139.011 142.833 139.04 143.728 139.069C148.411 139.218 152.716 139.356 157 136.812C160.058 134.041 161.735 131.116 162.254 126.973C162.386 122.257 161.835 119.021 158.652 115.516C157.429 114.613 156.52 113.942 155.525 113.444ZM150.638 117.767C148.866 117 146.762 117 141 117V134C141.498 134.033 141.977 134.068 142.44 134.102C146.979 134.434 150.007 134.655 154.125 131.938C155.034 130.513 155.502 129.779 155.794 128.981C156.103 128.133 156.212 127.212 156.438 125.312C156.202 123.531 156.094 122.708 155.732 122.016C155.422 121.422 154.925 120.925 154 120C152.567 118.904 151.658 118.209 150.638 117.767Z" fill="#577E70"/>
<path fill-rule="evenodd" clip-rule="evenodd" d="M104.446 113.306C101.351 112 97.7059 112 86 112V160H92V140H95C96.1821 143.546 97.942 146.213 100.012 149.307L101.625 151.688L101.773 151.919C103.639 154.842 105.426 157.641 108 160C110.162 160.288 111.125 160.416 112.082 160.385C112.852 160.36 113.618 160.231 115 160C114.418 158.253 114.174 157.523 113.833 156.843C113.588 156.355 113.292 155.893 112.785 155.099L111.277 152.988L109.646 150.693L107.938 148.312C106.322 146.045 104.707 143.777 103.086 141.513L102 140C104.022 138.701 106.02 137.363 108 136C110.348 133.343 111.791 131.328 112.348 127.789C112.528 123.082 112.162 119.69 109 116C107.132 114.754 105.845 113.897 104.446 113.306ZM101.949 118.128C100.208 117.432 98.2315 117.328 92 117V134H100C100.102 133.966 100.201 133.933 100.298 133.901C103.193 132.938 104.247 132.587 106 130C106.473 125.747 106.725 123.285 104.625 119.562C103.515 118.902 102.758 118.451 101.949 118.128Z" fill="#577E70"/>
<path fill-rule="evenodd" clip-rule="evenodd" d="M147.08 15.4614C146.569 15.3329 146.054 15.2236 145 15L145 15.0002L144.999 15.0009C144.713 15.2872 144.501 15.4996 144.321 15.7368C143.807 16.4164 143.563 17.3 142.62 20.7129L142.62 20.7134C141.603 24.4629 140.577 28.2096 139.531 31.9512L138.625 35.1875L137.742 38.459L136.852 41.6055C135.452 46.672 133.422 49.5678 128.859 52.2656L126.75 53.25C125.504 53.8413 124.255 54.4274 123 55C124.184 47.4513 125.521 38.6232 123.102 31.2695C120.799 26.5259 117.851 23.1436 113 21L112.852 20.987C109.707 20.7107 107.153 20.4864 104.211 21.7969L102 23C98.4248 24.8159 94.8945 26.678 91.4375 28.7109C86.1279 32.0482 81.8267 36.5725 80.332 42.7695L80 45H77C74.3097 46.7936 71.5677 48.4192 68.7598 50.0195L66.8125 51.125C64.5423 52.4178 62.2716 53.7097 60 55C60.4264 53.6414 60.8596 52.2853 61.2926 50.93L61.2929 50.9291L61.2931 50.9282C64.7335 40.1586 68.1565 29.4433 68 18H64C62.0921 19.4727 61.0278 20.9551 59.7608 23.002L58.5469 25.2812L57.1809 27.8176C56.3493 29.3765 55.5275 30.961 54.7008 32.5549C50.7675 40.1381 46.7249 47.9318 41.0078 54.1758C37.2327 57.7301 34.3923 59.8652 29 60L27 57C26.5603 50.2952 28.0229 45.4522 30.4727 39.2305C33.2797 32.1214 35.7239 25.7316 36 18H35.9997C34.9642 18.0245 34.3932 18.0381 33.8354 18.1309C33.1498 18.2449 32.484 18.4788 31 19L30.9999 19.0001C29.959 20.9252 29.5708 21.6432 29.2509 22.3905C29.0605 22.835 28.8944 23.2899 28.6294 24.0154L27.9375 26.125C27.1678 28.3353 26.4145 30.5469 25.6978 32.7749L25 35C23.4402 39.9564 22.0361 44.9024 21 50C20.4907 55.2003 20.4498 59.7392 23.5 64.1875C27.239 66.8982 30.5299 66.6106 35 66C37.6992 65.1737 39.5898 64.595 41.2448 63.6174C45.1138 61.3322 47.6954 56.8674 56.3125 41.9648L58 39C57.651 40.562 57.2903 42.1213 56.9258 43.6797C53.9595 55.4525 51.6676 63.6501 41.082 70.1602C37.0237 72.5829 34.0527 75.4275 31 79C30.7047 79.3546 30.4098 79.7065 30.1167 80.0564L30.115 80.0583C25.5363 85.5224 21.3645 90.5008 22 98C23.327 100.909 24.4138 101.845 27 104C28.6323 104.363 29.4752 104.55 30.3205 104.562C31.223 104.575 32.1282 104.387 34 104C37.1424 102.261 39.261 101.089 40.9977 99.4995C44.5911 96.211 46.5501 91.1365 52.5623 75.5629L52.5624 75.5627L52.5625 75.5625C52.7377 75.0785 52.9071 74.6022 53.0738 74.1333C54.6756 69.629 56.0317 65.8159 59.8789 62.5742L63 61L66.211 59.0781L69.375 57.25C71.249 56.1648 73.1236 55.0809 75 54C74.9379 56.5091 74.8887 59.0177 74.8535 61.5273L74.8125 64.625C74.8089 64.7667 74.8053 64.9079 74.8016 65.0485C74.7974 65.2093 74.7931 65.3694 74.7889 65.529L74.7887 65.535C74.6575 70.4664 74.5419 74.8132 76.3633 79.5312C78.5447 82.8215 80.3557 85.4039 84 87C89.0233 87.606 94.3959 88.0529 99.1641 86.125L101 85C108.785 80.3061 115.078 73.24 118.227 64.6562L119 62C120.596 62 121.343 62 122.066 61.8683C122.702 61.7525 123.319 61.5347 124.48 61.1252L124.48 61.1251L124.48 61.125L127.188 60L129.918 58.875L132 58C131.779 58.7102 131.557 59.4186 131.335 60.1257L131.327 60.1523L131.323 60.1667L131.322 60.1669C128.863 68.014 126.452 75.7047 126 84C128.125 84.6362 129.72 85.1138 131.343 85.2467C136.23 85.6471 141.373 82.9236 162 72V68L160.375 67.3125C159.275 67.1677 158.684 67.09 158.116 67.1695C157.457 67.2615 156.827 67.5646 155.469 68.2188C151.942 70.0298 148.372 71.5757 144.719 73.1074L142.125 74.1875C139.084 75.4604 136.043 76.7326 133 78C134.811 71.3291 136.641 64.6637 138.5 58.0059L139.375 54.875L139.446 54.6199C141.095 48.7039 142.744 42.7901 144.531 36.9141C146.653 29.9509 148.601 23.3191 149 16C148.053 15.7249 147.568 15.5844 147.08 15.4614ZM91 36H90C82.0869 46.3689 78.6494 60.0695 80 73C81.35 76.9407 82.5112 79.5847 86 82C90.2523 82.729 93.956 82.3196 98.0625 81.0625C105.051 76.1558 109.618 69.7499 113 62C112.521 61.8475 112.041 61.6966 111.56 61.5457L111.556 61.5444L111.556 61.5443C106.971 60.1045 102.358 58.6557 98.5625 55.625C93.0364 49.9642 91.5351 45.9853 91.0781 38.1953L91 36ZM113 26.9999C115.257 28.8911 116.686 30.3728 118 32.9999C118.52 41.1831 118.664 48.5185 115 55.9999C108.225 56.1097 104.57 54.488 99.6289 49.8866C97.066 46.918 96.0968 44.629 95.5 40.7499C96.3156 34.6328 99.8308 30.7895 104.5 26.9374C107.819 25.693 109.637 25.9265 113 26.9999ZM43.9644 81.5939C45.5627 78.4772 47 75.6744 47 72C41.5548 75.6301 37.1831 80.5385 32.8555 85.418C32.7137 85.5903 32.5744 85.7592 32.4376 85.9251C29.3705 89.6433 27.5744 91.8208 28 97L33 98C36.9827 94.0173 39.7218 89.914 42.2832 84.9316L43.375 82.75C43.5723 82.3586 43.7696 81.9739 43.9644 81.5939Z" fill="#96C0B2"/>
<path d="M236 34C236.66 34 237.32 34 238 34C238 34.66 238 35.32 238 36C238.99 36 239.98 36 241 36C241 36.66 241 37.32 241 38C243.64 38 246.28 38 249 38C248.01 39.485 248.01 39.485 247 41C246.34 41 245.68 41 245 41C245.33 41.66 245.66 42.32 246 43C246.134 45.6724 246.043 48.3225 246 51C245.34 51 244.68 51 244 51C243.34 48.69 242.68 46.38 242 44C238.996 44.6954 238.996 44.6954 236 46C235.031 48.0324 235.031 48.0324 235 50C231 45.25 231 45.25 231 43C232.392 43.0309 232.392 43.0309 233.812 43.0625C237.023 43.1577 237.023 43.1577 240 42C239.01 40.5769 239.01 40.5769 238 39.125C236 36 236 36 236 34Z" fill="#E5E8EA"/>
<path d="M121.937 84.75C122.948 84.8325 123.959 84.915 125 85C127 88 127 88 126.812 90.25C125.807 93.6546 124.46 96.7635 123 100C122.34 100 121.68 100 121 100C116.938 91.9974 116.938 91.9974 117.187 88C118.43 84.9426 118.472 85.0449 121.937 84.75Z" fill="#DEE1E3"/>
<path d="M126 102C128 103.5 128 103.5 129 105C125.842 107.105 125.046 107.253 121.438 107.187C120.26 107.178 120.26 107.178 119.059 107.168C117 107 117 107 115 106C115.33 105.01 115.66 104.02 116 103C119.17 101.415 122.547 101.576 126 102Z" fill="#89979E"/>
<path d="M229 47C229.33 47.99 229.66 48.98 230 50C229.01 50.33 228.02 50.66 227 51C226.67 50.67 226.34 50.34 226 50C225.01 50.99 224.02 51.98 223 53C223 50 223 50 224.312 48.3125C226 47 226 47 229 47Z" fill="#7FA198"/>
<path d="M231 43C233.475 43.495 233.475 43.495 236 44C236 45.65 236 47.3 236 49C235.01 49.495 235.01 49.495 234 50C231 45.25 231 45.25 231 43Z" fill="#BFC7CB"/>
</g>
<defs>
<clipPath id="clip0_30_2">
<rect width="255" height="175" fill="white"/>
</clipPath>
</defs>
</svg>
