<?xml version="1.0" standalone="no"?>
<!DOCTYPE svg PUBLIC "-//W3C//DTD SVG 20010904//EN"
 "http://www.w3.org/TR/2001/REC-SVG-20010904/DTD/svg10.dtd">
<svg version="1.0" xmlns="http://www.w3.org/2000/svg"
 width="1650.000000pt" height="993.000000pt" viewBox="0 0 1650.000000 993.000000"
 preserveAspectRatio="xMidYMid meet">

<g transform="translate(0.000000,993.000000) scale(0.100000,-0.100000)"
fill="#000000" stroke="none">
<path d="M8115 9869 c-60 -4 -126 -10 -145 -13 -154 -27 -217 -42 -309 -72
-332 -112 -605 -309 -765 -554 -126 -193 -172 -360 -163 -584 10 -245 91 -441
266 -644 300 -349 850 -548 1388 -504 732 60 1291 513 1353 1096 20 185 -19
374 -116 556 -56 106 -106 171 -210 274 -250 251 -647 420 -1030 441 -60 3
-120 7 -134 9 -14 1 -74 -1 -135 -5z m460 -39 c139 -27 294 -78 411 -135 91
-44 260 -151 283 -179 7 -8 -61 23 -151 68 -305 154 -555 216 -872 216 -220 0
-360 -19 -544 -76 -177 -54 -355 -141 -512 -249 -108 -74 -113 -75 -38 -2 171
167 454 302 747 357 157 29 151 28 366 25 157 -2 224 -7 310 -25z m95 -710 c0
-123 -1 -130 -20 -130 -11 0 -20 5 -20 12 0 9 -3 9 -12 0 -19 -19 -73 -14 -93
8 -25 27 -25 98 -1 134 16 26 22 28 62 23 l44 -5 0 44 c0 37 3 44 20 44 19 0
20 -7 20 -130z m-725 93 c13 -12 16 -27 12 -57 -4 -27 -1 -47 9 -60 20 -28 17
-56 -8 -83 -18 -19 -32 -23 -85 -23 l-63 0 0 120 0 120 59 0 c43 0 64 -5 76
-17z m175 -64 c0 -12 -5 -16 -15 -12 -32 12 -55 -26 -55 -89 0 -51 -2 -58 -20
-58 -18 0 -20 7 -20 89 l0 88 55 1 c47 0 55 -2 55 -19z m159 -5 c51 -65 11
-154 -69 -154 -56 0 -80 26 -80 87 0 63 27 93 86 93 34 0 47 -5 63 -26z m175
4 c11 -15 16 -45 16 -89 l0 -67 -57 -1 c-61 0 -93 17 -93 50 0 25 47 59 82 59
23 0 29 4 26 18 -3 13 -13 17 -51 15 -33 -1 -47 3 -47 12 0 17 16 23 67 24 32
1 45 -4 57 -21z m-36 -341 c2 -11 -3 -17 -17 -17 -23 0 -35 15 -26 31 10 15
39 6 43 -14z m-580 -9 c3 -14 -4 -17 -40 -15 -37 2 -43 -1 -46 -20 -2 -16 5
-26 30 -39 53 -26 68 -44 68 -80 0 -24 -7 -38 -24 -49 -32 -21 -105 -16 -120
7 -15 25 -1 33 33 18 38 -16 71 -5 71 23 0 16 -13 29 -48 47 -40 21 -47 30
-50 58 -5 51 21 74 77 70 34 -2 47 -8 49 -20z m175 -56 c9 -10 20 -33 23 -50
l7 -32 -62 0 c-54 0 -61 -2 -61 -20 0 -23 36 -35 81 -26 25 5 30 3 27 -12 -5
-27 -100 -30 -127 -3 -30 30 -29 106 1 138 27 29 87 32 111 5z m165 1 c-2 -9
-14 -17 -26 -18 -33 -2 -42 -21 -42 -87 0 -51 -2 -58 -20 -58 -19 0 -20 7 -20
89 l0 89 56 1 c46 0 55 -2 52 -16z m67 -43 c10 -33 21 -60 25 -60 4 0 15 27
25 60 14 45 23 60 37 60 23 0 22 -10 -11 -100 -23 -62 -33 -75 -52 -78 -22 -2
-27 5 -51 76 -33 92 -34 102 -10 102 14 0 23 -15 37 -60z m175 -30 c0 -83 -1
-90 -20 -90 -19 0 -20 7 -20 90 0 83 1 90 20 90 19 0 20 -7 20 -90z m164 68
c13 -22 1 -35 -18 -19 -42 35 -90 -19 -70 -76 10 -30 48 -43 67 -24 16 16 27
13 27 -8 0 -22 -19 -31 -65 -31 -67 0 -100 95 -54 154 18 23 28 27 62 24 24
-2 44 -10 51 -20z m166 2 c11 -11 20 -33 20 -50 l0 -30 -60 0 c-44 0 -60 -4
-60 -14 0 -25 29 -39 69 -33 45 6 56 0 40 -20 -7 -7 -32 -13 -59 -13 -41 0
-52 4 -70 28 -29 35 -23 107 10 134 30 24 85 23 110 -2z m-826 -355 c27 -27
29 -55 8 -84 -19 -26 -19 -28 -2 -61 31 -62 34 -80 12 -80 -14 0 -25 14 -40
50 -17 42 -25 50 -46 50 -24 0 -26 -3 -26 -50 0 -43 -3 -50 -20 -50 -19 0 -20
7 -20 120 l0 120 59 0 c40 0 65 -5 75 -15z m190 -67 c11 -15 16 -45 16 -89 l0
-67 -60 -1 c-53 0 -62 2 -76 24 -15 23 -15 27 0 50 11 17 29 27 57 31 30 5 39
11 37 23 -3 12 -15 16 -51 14 -26 -1 -47 2 -47 6 0 18 28 31 66 31 33 0 47 -5
58 -22z m96 10 c0 -9 3 -9 12 0 17 17 73 15 88 -3 7 -9 15 -49 18 -90 4 -71 4
-75 -17 -75 -19 0 -21 5 -21 59 0 72 -6 91 -30 91 -35 0 -50 -28 -50 -91 0
-52 -2 -60 -17 -57 -15 3 -19 16 -21 77 -2 41 -1 80 2 88 7 16 36 17 36 1z
m310 -3 c0 -8 -4 -15 -10 -15 -5 0 -10 -12 -10 -27 0 -40 -27 -63 -72 -63 -24
0 -37 -4 -33 -10 3 -5 25 -10 47 -10 42 0 78 -21 78 -47 0 -29 -39 -53 -88
-53 -52 0 -92 27 -76 51 4 7 8 46 9 87 3 91 13 102 97 102 45 0 58 -3 58 -15z
m150 -5 c11 -11 20 -33 20 -50 l0 -30 -60 0 c-64 0 -66 -1 -49 -31 8 -17 19
-20 54 -18 25 2 48 0 52 -5 22 -22 -80 -36 -117 -16 -29 15 -44 73 -30 115 6
19 19 39 28 45 29 16 81 11 102 -10z"/>
<path d="M8549 9113 c-13 -36 1 -87 25 -91 26 -5 56 27 56 59 0 57 -62 81 -81
32z"/>
<path d="M7850 9165 c0 -35 1 -36 33 -33 28 3 32 6 32 33 0 27 -4 30 -32 33
-32 3 -33 2 -33 -33z"/>
<path d="M7850 9060 c0 -39 1 -40 34 -40 39 0 60 20 51 48 -5 19 -32 32 -67
32 -14 0 -18 -9 -18 -40z"/>
<path d="M8182 9128 c-17 -17 -15 -83 2 -98 42 -34 90 20 70 78 -10 30 -50 42
-72 20z"/>
<path d="M8374 9056 c-15 -11 -16 -17 -7 -27 18 -18 63 -3 63 21 0 24 -27 27
-56 6z"/>
<path d="M7932 8718 c-21 -21 -13 -28 28 -28 22 0 40 4 40 8 0 14 -23 32 -40
32 -9 0 -21 -5 -28 -12z"/>
<path d="M8660 8711 c-10 -20 -8 -21 30 -21 34 0 41 3 38 18 -5 26 -54 28 -68
3z"/>
<path d="M7830 8330 c0 -36 3 -40 24 -40 14 0 32 9 40 22 21 30 4 58 -34 58
-28 0 -30 -2 -30 -40z"/>
<path d="M8034 8226 c-15 -11 -16 -17 -7 -27 18 -18 63 -3 63 21 0 24 -27 27
-56 6z"/>
<path d="M8404 8296 c-10 -26 4 -48 28 -44 17 2 23 10 23 28 0 18 -6 26 -23
28 -13 2 -25 -3 -28 -12z"/>
<path d="M8395 8160 c-12 -19 10 -32 46 -28 48 4 46 32 -3 36 -20 2 -39 -2
-43 -8z"/>
<path d="M8580 8290 c-10 -19 -8 -20 35 -20 43 0 45 1 35 20 -6 12 -21 20 -35
20 -14 0 -29 -8 -35 -20z"/>
<path d="M6466 8062 c15 -26 31 -51 36 -56 18 -22 4 -37 -87 -90 l-94 -56 111
-193 c61 -105 116 -200 123 -209 10 -15 20 -12 109 39 53 30 99 53 100 52 2
-2 18 -30 36 -62 18 -32 35 -56 37 -53 3 3 2 103 -2 224 l-7 218 -194 117
-195 116 27 -47z"/>
<path d="M9622 7887 l-121 -211 100 -58 100 -59 -38 -66 -37 -67 51 30 c27 16
116 67 196 114 l147 85 0 224 c0 123 -2 222 -4 220 -2 -2 -19 -30 -38 -61
l-34 -56 -100 57 -100 58 -122 -210z"/>
<path d="M6250 7576 c0 -2 8 -10 18 -17 15 -13 16 -12 3 4 -13 16 -21 21 -21
13z"/>
<path d="M6366 7417 c3 -10 9 -15 12 -12 3 3 0 11 -7 18 -10 9 -11 8 -5 -6z"/>
<path d="M6393 7367 c75 -114 131 -370 120 -542 -10 -140 -83 -341 -175 -480
-164 -246 -491 -465 -822 -550 -179 -46 -217 -50 -456 -50 -191 1 -247 4 -300
18 -36 10 -80 20 -98 23 -94 15 -282 86 -407 154 -330 179 -570 477 -621 775
-15 87 -15 298 0 380 3 17 -1 8 -10 -20 -24 -80 -30 -293 -10 -398 100 -530
585 -936 1226 -1027 112 -16 359 -14 482 5 343 51 623 180 848 392 162 153
276 334 337 538 25 83 27 103 27 270 0 167 -2 186 -28 270 -30 100 -104 265
-119 265 -5 0 -2 -11 6 -23z"/>
<path d="M12811 7265 c0 -5 11 -30 24 -55 13 -25 24 -40 24 -35 0 6 -11 30
-24 55 -13 25 -24 41 -24 35z"/>
<path d="M3646 7165 c-3 -9 -6 -22 -5 -28 0 -7 5 -1 10 12 5 13 8 26 5 28 -2
2 -6 -3 -10 -12z"/>
<path d="M12865 7144 c3 -12 12 -41 20 -65 12 -38 14 -39 8 -9 -3 19 -12 49
-19 65 -8 17 -11 21 -9 9z"/>
<path d="M12906 6930 c3 -139 -10 -225 -53 -340 -73 -194 -186 -337 -385 -488
-201 -152 -409 -240 -713 -304 -97 -20 -138 -22 -355 -23 -155 0 -265 5 -300
13 -30 6 -71 14 -90 17 -19 4 -69 15 -110 26 -433 112 -774 368 -925 693 -36
77 -54 136 -78 251 -4 16 -5 15 -6 -5 0 -14 6 -54 14 -90 69 -296 276 -544
601 -721 401 -218 954 -274 1432 -144 120 33 212 70 349 139 398 201 636 539
633 899 0 56 -4 120 -9 142 -6 29 -7 10 -5 -65z"/>
<path d="M9881 6854 c0 -11 3 -14 6 -6 3 7 2 16 -1 19 -3 4 -6 -2 -5 -13z"/>
<path d="M11268 4313 c39 -2 105 -2 145 0 39 1 7 3 -73 3 -80 0 -112 -2 -72
-3z"/>
<path d="M11128 4303 c12 -2 32 -2 45 0 12 2 2 4 -23 4 -25 0 -35 -2 -22 -4z"/>
<path d="M11491 4306 c2 -2 36 -6 74 -9 54 -4 61 -4 30 3 -40 9 -112 13 -104
6z"/>
<path d="M11048 4293 c6 -2 18 -2 25 0 6 3 1 5 -13 5 -14 0 -19 -2 -12 -5z"/>
<path d="M10932 4273 c-35 -8 -62 -17 -59 -19 2 -2 39 4 83 15 43 10 70 19 59
19 -11 0 -48 -7 -83 -15z"/>
<path d="M11695 4274 c268 -64 514 -190 687 -352 48 -44 61 -72 34 -72 -7 0
-20 7 -27 16 -7 9 -63 50 -125 90 -127 84 -304 171 -414 203 -41 12 -88 26
-105 31 -157 49 -493 59 -703 22 -282 -51 -536 -170 -754 -353 -92 -77 -114
-92 -130 -86 -8 2 32 49 97 114 96 96 149 137 280 219 40 24 149 76 208 99 26
10 46 20 44 22 -6 6 -132 -44 -208 -82 -351 -177 -592 -462 -681 -805 -24 -96
-34 -292 -19 -390 80 -518 514 -924 1121 -1050 148 -31 432 -39 585 -16 354
53 645 194 875 425 58 58 126 138 153 178 422 636 117 1418 -672 1724 -87 34
-255 80 -286 78 -11 -1 7 -8 40 -15z m-665 -822 c0 -13 -7 -18 -22 -18 -33 1
-38 -41 -6 -46 30 -4 30 -22 1 -26 -22 -3 -23 -8 -23 -83 0 -72 -2 -79 -20
-79 -18 0 -20 7 -20 80 0 64 -3 80 -15 80 -8 0 -15 7 -15 15 0 8 7 15 15 15 8
0 15 9 15 21 0 39 19 59 55 59 27 0 35 -4 35 -18z m1260 -117 c0 -128 -1 -135
-20 -135 -19 0 -20 7 -20 135 0 128 1 135 20 135 19 0 20 -7 20 -135z m-700
105 c0 -13 -7 -20 -19 -20 -22 0 -35 15 -26 30 12 19 45 11 45 -10z m-1060
-10 c48 -48 9 -130 -62 -130 l-38 0 0 -50 c0 -43 -3 -50 -20 -50 -19 0 -20 7
-20 125 l0 125 60 0 c47 0 64 -4 80 -20z m170 -61 c0 -16 -4 -19 -16 -15 -33
13 -54 -22 -54 -91 0 -56 -2 -63 -20 -63 -19 0 -20 7 -20 94 l0 94 55 1 c49 0
55 -2 55 -20z m167 -1 c33 -31 33 -109 -2 -143 -28 -29 -88 -34 -122 -10 -41
29 -42 116 -3 155 28 28 96 27 127 -2z m313 2 c11 -11 20 -33 20 -50 l0 -30
-65 0 c-36 0 -65 -3 -65 -8 0 -4 7 -18 16 -31 15 -20 22 -23 61 -17 39 5 44 4
41 -12 -4 -24 -90 -29 -123 -8 -43 28 -45 116 -5 156 27 27 93 27 120 0z m168
-2 c3 -15 -3 -17 -35 -15 -51 3 -50 -17 2 -46 47 -26 57 -63 26 -91 -25 -23
-104 -19 -109 6 -3 14 4 17 40 15 58 -3 63 22 8 47 -48 21 -62 56 -34 87 23
26 97 24 102 -3z m150 1 c2 -13 -5 -16 -35 -15 -50 1 -50 -18 2 -47 47 -26 57
-63 26 -91 -25 -23 -104 -19 -109 6 -3 14 4 17 40 15 54 -3 65 24 18 43 -17 7
-38 24 -47 37 -14 21 -14 25 1 49 15 21 23 25 59 22 29 -2 43 -8 45 -19z m92
-74 c0 -88 -1 -95 -20 -95 -19 0 -20 7 -20 95 0 88 1 95 20 95 19 0 20 -7 20
-95z m199 69 c31 -39 29 -107 -4 -139 -35 -36 -105 -35 -134 1 -31 39 -29 107
4 139 35 36 105 35 134 -1z m208 -4 c7 -14 13 -55 13 -92 0 -61 -2 -68 -20
-68 -18 0 -20 7 -20 63 0 80 -16 107 -54 89 -24 -11 -26 -16 -26 -82 0 -63 -2
-70 -20 -70 -19 0 -20 7 -20 94 l0 94 67 -2 c61 -1 69 -3 80 -26z m190 0 c7
-14 13 -55 13 -91 l0 -67 -65 -1 c-59 -1 -66 2 -81 25 -30 45 12 94 82 94 27
0 31 12 9 30 -9 8 -28 10 -55 5 -32 -5 -40 -4 -40 8 0 21 17 26 75 24 42 -2
51 -6 62 -27z m-1087 -355 c0 -11 -11 -15 -40 -15 l-40 0 0 -110 c0 -103 -1
-110 -20 -110 -19 0 -20 7 -20 110 l0 110 -34 0 c-34 0 -52 11 -39 24 3 3 48
6 100 6 76 0 93 -3 93 -15z m124 -64 c9 -10 18 -31 19 -47 2 -29 2 -29 -60
-32 -67 -3 -79 -15 -46 -47 12 -13 26 -15 60 -10 40 6 44 4 41 -12 -3 -14 -14
-19 -60 -21 -50 -3 -58 0 -77 24 -28 36 -28 102 0 138 16 21 29 26 63 26 29 0
48 -6 60 -19z m193 -11 c7 -14 13 -55 13 -91 l0 -67 -65 -1 c-59 -1 -66 2 -81
25 -30 45 12 94 82 94 27 0 31 12 9 30 -9 8 -28 10 -55 5 -32 -5 -40 -4 -40 8
0 21 17 26 75 24 42 -2 51 -6 62 -27z m93 18 c0 -9 3 -9 12 0 15 15 70 16 85
1 8 -8 17 -8 31 0 29 16 68 14 86 -5 12 -11 16 -36 16 -95 0 -72 -2 -79 -20
-79 -18 0 -20 7 -20 75 0 83 -14 103 -50 70 -16 -14 -20 -31 -20 -82 0 -56 -2
-63 -20 -63 -18 0 -20 7 -20 69 0 78 -14 100 -49 81 -18 -9 -21 -20 -21 -80 0
-63 -2 -70 -20 -70 -19 0 -20 7 -20 95 0 78 3 95 15 95 8 0 15 -5 15 -12z"/>
<path d="M10430 3375 c0 -41 2 -45 24 -45 29 0 56 24 56 50 0 21 -28 40 -59
40 -18 0 -21 -6 -21 -45z"/>
<path d="M10766 3338 c-9 -12 -16 -32 -16 -43 0 -29 28 -65 50 -65 30 0 50 28
50 70 0 29 -5 42 -19 50 -30 16 -48 12 -65 -12z"/>
<path d="M11080 3340 c-10 -19 -8 -20 35 -20 46 0 54 7 33 28 -19 19 -56 14
-68 -8z"/>
<path d="M11687 3342 c-21 -23 -22 -76 -1 -96 35 -36 84 -7 84 49 0 58 -49 85
-83 47z"/>
<path d="M12110 3283 c-36 -14 -33 -53 4 -53 27 0 46 18 46 42 0 18 -20 22
-50 11z"/>
<path d="M11132 2918 c-21 -21 -13 -28 33 -28 43 0 45 1 35 20 -12 22 -49 27
-68 8z"/>
<path d="M11340 2853 c-36 -14 -33 -53 4 -53 27 0 46 18 46 42 0 18 -20 22
-50 11z"/>
<path d="M10815 4240 c-13 -5 -14 -9 -5 -9 8 0 24 4 35 9 13 5 14 9 5 9 -8 0
-24 -4 -35 -9z"/>
<path d="M6390 3740 c6 -11 13 -20 16 -20 2 0 0 9 -6 20 -6 11 -13 20 -16 20
-2 0 0 -9 6 -20z"/>
<path d="M6420 3691 c0 -6 4 -13 10 -16 6 -3 7 1 4 9 -7 18 -14 21 -14 7z"/>
<path d="M6441 3660 c-1 -3 13 -39 30 -80 46 -113 60 -182 64 -320 6 -176 -17
-284 -89 -429 -130 -258 -372 -475 -666 -599 -149 -63 -355 -113 -545 -133
-102 -11 -355 -7 -430 6 -291 52 -585 165 -745 284 -93 69 -223 197 -279 274
-55 75 -128 220 -151 301 -27 95 -43 240 -37 336 4 62 3 73 -3 40 -14 -75 -11
-236 6 -318 103 -500 552 -877 1179 -988 140 -25 451 -25 590 -1 335 60 603
182 814 371 177 159 282 321 349 536 23 77 26 101 26 250 1 142 -2 177 -22
249 -19 70 -88 238 -91 221z"/>
<path d="M3611 3444 c0 -11 3 -14 6 -6 3 7 2 16 -1 19 -3 4 -6 -2 -5 -13z"/>
<path d="M8020 2605 c-186 -27 -325 -69 -489 -146 -327 -155 -582 -432 -684
-744 -182 -557 91 -1138 672 -1429 576 -289 1322 -191 1774 233 185 174 303
368 359 591 28 112 35 340 14 454 -59 313 -239 581 -526 783 -151 107 -410
212 -610 248 -128 23 -388 28 -510 10z m1120 -990 c0 -113 -2 -135 -15 -135
-8 0 -15 5 -15 10 0 7 -6 7 -19 0 -58 -30 -111 11 -111 85 0 57 30 95 74 95
17 0 37 -5 44 -12 9 -9 12 0 12 40 0 40 4 52 15 52 13 0 15 -22 15 -135z
m-550 105 c0 -13 -7 -20 -20 -20 -13 0 -20 7 -20 20 0 13 7 20 20 20 13 0 20
-7 20 -20z m-1095 -6 c23 -24 5 -36 -32 -22 -40 15 -79 -1 -93 -38 -29 -76 10
-152 73 -141 18 3 40 8 50 12 24 10 23 -21 -2 -35 -26 -13 -84 -13 -115 1 -71
33 -74 175 -4 223 30 21 102 21 123 0z m445 -19 c0 -20 5 -25 25 -25 16 0 25
-6 25 -15 0 -9 -9 -15 -25 -15 -23 0 -25 -3 -25 -49 0 -62 7 -81 31 -81 10 0
19 -7 19 -15 0 -18 -50 -21 -68 -3 -7 7 -12 40 -12 80 0 54 -3 68 -15 68 -8 0
-15 7 -15 15 0 8 7 15 15 15 9 0 15 9 15 25 0 16 6 25 15 25 9 0 15 -9 15 -25z
m-360 -92 c0 -85 9 -101 47 -87 27 9 28 13 31 82 3 64 5 72 22 72 18 0 20 -7
20 -95 0 -88 -1 -95 -20 -95 -11 0 -20 5 -20 12 0 9 -3 9 -12 0 -16 -16 -60
-15 -83 2 -16 12 -20 29 -23 95 -4 77 -3 81 17 81 19 0 21 -6 21 -67z m268 46
c2 -12 -5 -14 -33 -11 -50 6 -48 -26 3 -53 29 -16 38 -27 40 -52 2 -24 -2 -34
-18 -43 -30 -16 -94 -9 -98 11 -2 13 6 16 40 15 59 -1 63 24 8 49 -48 22 -62
55 -34 86 22 24 87 23 92 -2z m319 -1 c33 -31 33 -109 -2 -143 -32 -33 -89
-34 -122 -3 -33 31 -33 109 2 143 32 33 89 34 122 3z m103 12 c0 -7 6 -7 19 0
28 14 62 12 81 -5 15 -14 18 -14 30 0 16 20 59 19 82 -2 24 -22 27 -173 3
-173 -12 0 -15 14 -15 63 0 80 -16 107 -54 89 -24 -11 -26 -16 -26 -82 0 -63
-2 -70 -20 -70 -17 0 -19 8 -22 77 -3 66 -6 78 -21 81 -37 7 -57 -26 -57 -95
0 -49 -3 -63 -15 -63 -12 0 -15 17 -15 95 0 78 3 95 15 95 8 0 15 -5 15 -10z
m320 -85 c0 -88 -1 -95 -20 -95 -19 0 -20 7 -20 95 0 88 1 95 20 95 19 0 20
-7 20 -95z m165 85 c4 -6 -12 -40 -34 -75 -23 -35 -41 -67 -41 -70 0 -3 18 -5
40 -5 29 0 40 -4 40 -15 0 -12 -14 -15 -65 -15 -42 0 -65 4 -65 11 0 7 18 40
40 75 22 35 40 66 40 69 0 3 -16 5 -35 5 -24 0 -35 5 -35 15 0 11 13 15 54 15
30 0 58 -5 61 -10z m164 -7 c12 -10 23 -31 24 -48 l2 -30 -62 -3 c-67 -3 -79
-15 -46 -47 13 -13 27 -16 61 -11 38 5 43 4 40 -12 -4 -24 -90 -29 -123 -8
-43 28 -45 116 -5 156 25 25 80 26 109 3z m-969 -468 c0 -128 -1 -135 -20
-135 -19 0 -20 7 -20 135 0 128 1 135 20 135 19 0 20 -7 20 -135z m430 105 c0
-13 -7 -20 -20 -20 -13 0 -20 7 -20 20 0 13 7 20 20 20 13 0 20 -7 20 -20z
m-732 -13 c3 -16 -1 -17 -32 -11 -38 7 -66 -7 -66 -32 0 -8 22 -25 50 -39 56
-28 73 -53 64 -90 -9 -34 -41 -55 -85 -55 -50 0 -69 8 -69 31 0 22 0 22 36 8
34 -12 70 -5 78 17 7 19 -20 54 -41 54 -19 0 -73 54 -73 73 0 8 10 26 21 41
18 23 27 27 68 24 35 -2 47 -7 49 -21z m602 -12 c0 -20 5 -25 25 -25 16 0 25
-6 25 -15 0 -9 -9 -15 -25 -15 -23 0 -25 -3 -25 -49 0 -62 7 -81 31 -81 10 0
19 -7 19 -15 0 -18 -50 -21 -68 -3 -7 7 -12 40 -12 80 0 54 -3 68 -15 68 -8 0
-15 7 -15 15 0 8 7 15 15 15 9 0 15 9 15 25 0 16 6 25 15 25 9 0 15 -9 15 -25z
m-405 -50 c39 -38 31 -117 -14 -152 -22 -17 -82 -16 -108 2 -24 17 -39 71 -29
110 16 65 104 88 151 40z m195 -42 c0 -85 9 -101 47 -87 27 9 28 13 31 82 3
64 5 72 22 72 18 0 20 -7 20 -95 0 -88 -1 -95 -20 -95 -11 0 -20 5 -20 12 0 9
-3 9 -12 0 -16 -16 -60 -15 -83 2 -16 12 -20 29 -23 95 -4 77 -3 81 17 81 19
0 21 -6 21 -67z m340 -28 c0 -88 -1 -95 -20 -95 -19 0 -20 7 -20 95 0 88 1 95
20 95 19 0 20 -7 20 -95z m195 70 c19 -18 25 -35 25 -70 0 -35 -6 -52 -25 -70
-26 -27 -80 -34 -115 -15 -24 13 -43 72 -35 110 15 66 103 93 150 45z m105 13
c0 -9 3 -9 12 0 19 19 66 14 88 -8 16 -16 20 -33 20 -95 0 -68 -2 -75 -20 -75
-18 0 -20 7 -20 75 0 83 -10 97 -56 77 -22 -11 -24 -17 -24 -82 0 -63 -2 -70
-20 -70 -19 0 -20 7 -20 95 0 88 1 95 20 95 11 0 20 -5 20 -12z m268 -9 c2
-12 -5 -14 -33 -11 -50 6 -48 -26 3 -53 29 -16 38 -27 40 -52 2 -24 -2 -34
-18 -43 -30 -16 -94 -9 -98 11 -2 13 6 16 40 15 59 -1 63 24 8 49 -48 22 -62
55 -34 86 22 24 87 23 92 -2z"/>
<path d="M9032 1628 c-7 -7 -12 -30 -12 -53 0 -62 38 -86 73 -47 46 50 -14
147 -61 100z"/>
<path d="M8072 1627 c-36 -43 -15 -117 33 -117 27 0 55 33 55 65 0 50 -60 86
-88 52z"/>
<path d="M8832 1628 c-21 -21 -13 -28 34 -28 38 0 45 3 40 16 -3 9 -6 18 -6
20 0 10 -57 3 -68 -8z"/>
<path d="M7746 1194 c-18 -18 -21 -66 -6 -95 7 -12 21 -19 40 -19 33 0 50 23
50 65 0 59 -47 86 -84 49z"/>
<path d="M8476 1188 c-33 -47 -11 -108 38 -108 32 0 48 22 48 65 0 20 -6 42
-12 50 -18 22 -57 18 -74 -7z"/>
<path d="M9606 2435 c4 -77 9 -175 13 -218 l6 -78 170 -118 c94 -65 172 -117
174 -115 2 2 -11 29 -29 60 -25 45 -29 59 -18 65 7 5 46 27 86 49 39 22 72 43
72 47 0 3 -52 99 -115 214 l-116 208 -50 -30 c-28 -16 -68 -38 -89 -49 l-38
-20 -36 63 -36 62 6 -140z"/>
</g>
</svg>
